<svg width="227" height="62" viewBox="0 0 227 62" fill="none" xmlns="http://www.w3.org/2000/svg">
<g filter="url(#filter0_ii_32_188)">
<rect x="0.5" width="226" height="62" rx="31" fill="#2463FF"/>
<path d="M74.4 42.6094C73.9938 42.7969 73.5927 42.9375 73.1969 43.0312C72.801 43.1354 72.4469 43.2135 72.1344 43.2656C71.7698 43.3177 71.4156 43.349 71.0719 43.3594C70.6969 43.3594 70.2906 43.2917 69.8531 43.1562C69.426 43.0208 68.9938 42.7917 68.5563 42.4688C68.1188 42.1354 67.6969 41.6875 67.2906 41.125C66.8844 40.5521 66.525 39.8385 66.2125 38.9844C65.9 38.1198 65.65 37.0885 65.4625 35.8906C65.275 34.6927 65.1813 33.2969 65.1813 31.7031C65.1813 30.1094 65.2906 28.7188 65.5094 27.5312C65.7385 26.3438 66.0302 25.3281 66.3844 24.4844C66.749 23.6302 67.1552 22.9323 67.6031 22.3906C68.0615 21.8385 68.525 21.4062 68.9938 21.0938C69.4625 20.7708 69.9156 20.5521 70.3531 20.4375C70.801 20.3125 71.1865 20.25 71.5094 20.25C71.8115 20.2604 72.1083 20.2917 72.4 20.3438C72.65 20.3958 72.9104 20.474 73.1813 20.5781C73.4625 20.6823 73.7073 20.8281 73.9156 21.0156L73.6031 24.1562C73.3115 24.0104 73.0354 23.9062 72.775 23.8438C72.525 23.7708 72.2854 23.7344 72.0563 23.7344C71.6188 23.7344 71.2281 23.8542 70.8844 24.0938C70.551 24.3229 70.2594 24.6302 70.0094 25.0156C69.7698 25.401 69.5615 25.8385 69.3844 26.3281C69.2177 26.8177 69.0823 27.3177 68.9781 27.8281C68.7177 29.026 68.5719 30.3906 68.5406 31.9219C68.5719 33.4427 68.7229 34.7969 68.9938 35.9844C69.1083 36.4948 69.249 36.9948 69.4156 37.4844C69.5927 37.9635 69.8063 38.3958 70.0563 38.7812C70.3063 39.1562 70.5979 39.4583 70.9313 39.6875C71.275 39.9167 71.6708 40.0312 72.1188 40.0312C72.6083 40.0312 73.176 39.8594 73.8219 39.5156L74.4 42.6094ZM87.5313 32.0625C87.5313 34.1562 87.3854 35.9323 87.0938 37.3906C86.8125 38.849 86.4271 40.0365 85.9375 40.9531C85.4479 41.8594 84.8698 42.5208 84.2031 42.9375C83.5365 43.3438 82.8229 43.5469 82.0625 43.5469C81.3021 43.5469 80.5885 43.3542 79.9219 42.9688C79.2552 42.5729 78.6719 41.9271 78.1719 41.0312C77.6719 40.1354 77.276 38.9531 76.9844 37.4844C76.7031 36.0156 76.5625 34.2083 76.5625 32.0625C76.5625 29.9062 76.7031 28.0781 76.9844 26.5781C77.276 25.0677 77.6719 23.8438 78.1719 22.9062C78.6719 21.9583 79.2552 21.276 79.9219 20.8594C80.5885 20.4323 81.3021 20.2188 82.0625 20.2188C82.8229 20.2188 83.5365 20.4271 84.2031 20.8438C84.8698 21.25 85.4479 21.9219 85.9375 22.8594C86.4271 23.7969 86.8125 25.0208 87.0938 26.5312C87.3854 28.0312 87.5313 29.875 87.5313 32.0625ZM84.0469 32.0625C84.0469 30.4271 83.9948 29.0469 83.8906 27.9219C83.7865 26.7969 83.6406 25.8854 83.4531 25.1875C83.276 24.4792 83.0677 23.9688 82.8281 23.6562C82.5885 23.3438 82.3333 23.1875 82.0625 23.1875C81.7813 23.1875 81.5156 23.349 81.2656 23.6719C81.026 23.9844 80.8125 24.4948 80.625 25.2031C80.4479 25.901 80.3073 26.8177 80.2031 27.9531C80.099 29.0781 80.0469 30.4479 80.0469 32.0625C80.0469 33.6667 80.099 35.0156 80.2031 36.1094C80.3073 37.1927 80.4479 38.0677 80.625 38.7344C80.8125 39.3906 81.026 39.8594 81.2656 40.1406C81.5156 40.4219 81.7813 40.5625 82.0625 40.5625C82.3333 40.5625 82.5885 40.4167 82.8281 40.125C83.0677 39.8229 83.276 39.3385 83.4531 38.6719C83.6406 37.9948 83.7865 37.1146 83.8906 36.0312C83.9948 34.9479 84.0469 33.625 84.0469 32.0625ZM102.131 20.4688C101.996 22.5625 101.892 24.6406 101.819 26.7031C101.746 28.7552 101.709 30.8177 101.709 32.8906C101.709 34.5052 101.73 36.099 101.772 37.6719C101.824 39.2448 101.907 40.8281 102.022 42.4219L98.8656 42.3281C98.449 40.974 98.0375 39.6302 97.6313 38.2969C97.2354 36.9531 96.8396 35.6198 96.4438 34.2969C96.0479 32.974 95.6417 31.6562 95.225 30.3438C94.8188 29.0312 94.3969 27.724 93.9594 26.4219C93.9906 29.1406 94.0375 31.8542 94.1 34.5625C94.1729 37.2604 94.2979 39.9531 94.475 42.6406L90.8656 42.6094C90.9906 39.2865 91.0531 35.9479 91.0531 32.5938C91.0531 30.5312 91.0323 28.4896 90.9906 26.4688C90.949 24.4479 90.8865 22.4167 90.8031 20.375L95.1781 20.4688C95.7094 22.7604 96.2771 25.0885 96.8813 27.4531C97.4854 29.8177 98.126 32.151 98.8031 34.4531C98.7302 32.099 98.6208 29.7448 98.475 27.3906C98.3396 25.026 98.1885 22.7083 98.0219 20.4375L102.131 20.4688ZM113.481 23.8281C113.148 23.8073 112.763 23.7917 112.325 23.7812C111.898 23.7708 111.44 23.7656 110.95 23.7656C110.877 24.7344 110.815 25.7396 110.763 26.7812C110.721 27.8125 110.684 28.8646 110.653 29.9375C110.622 31 110.601 32.0729 110.591 33.1562C110.58 34.2292 110.575 35.2917 110.575 36.3438C110.575 37.5417 110.58 38.7031 110.591 39.8281C110.611 40.9427 110.648 42.0208 110.7 43.0625H107.372C107.466 41.2917 107.539 39.4062 107.591 37.4062C107.643 35.4062 107.669 33.3906 107.669 31.3594C107.669 30.0365 107.653 28.7448 107.622 27.4844C107.591 26.224 107.559 24.9948 107.528 23.7969C107.028 23.7969 106.554 23.8021 106.106 23.8125C105.658 23.8229 105.257 23.8385 104.903 23.8594L104.934 20.5938C105.309 20.625 105.731 20.651 106.2 20.6719C106.669 20.6823 107.158 20.6927 107.669 20.7031C108.19 20.7135 108.721 20.724 109.263 20.7344C109.804 20.7344 110.335 20.7344 110.856 20.7344C111.377 20.7344 111.867 20.7344 112.325 20.7344C112.794 20.7344 113.21 20.724 113.575 20.7031L113.481 23.8281ZM122.613 42.7812C122.196 42.7604 121.779 42.7448 121.363 42.7344C120.946 42.724 120.529 42.7188 120.113 42.7188C119.425 42.7188 118.738 42.7344 118.05 42.7656C117.363 42.7865 116.675 42.8229 115.988 42.875L116.019 39.5156C116.258 39.5469 116.498 39.5729 116.738 39.5938C116.977 39.6042 117.217 39.6198 117.456 39.6406C117.519 38.026 117.576 36.4219 117.628 34.8281C117.691 33.224 117.722 31.6198 117.722 30.0156C117.722 28.9427 117.706 27.8854 117.675 26.8438C117.644 25.7917 117.613 24.7344 117.581 23.6719C117.31 23.6719 117.034 23.6771 116.753 23.6875C116.472 23.6979 116.185 23.7135 115.894 23.7344L115.925 20.4688C116.727 20.5208 117.529 20.5625 118.331 20.5938C119.133 20.6146 119.941 20.625 120.753 20.625C121.045 20.625 121.336 20.625 121.628 20.625C121.92 20.625 122.217 20.6146 122.519 20.5938L122.425 23.7031C122.185 23.7031 121.946 23.6979 121.706 23.6875C121.477 23.6771 121.243 23.6719 121.003 23.6719C120.857 25.5469 120.753 27.4115 120.691 29.2656C120.628 31.1094 120.597 32.9688 120.597 34.8438C120.597 36.4792 120.628 38.1094 120.691 39.7344C121.024 39.7344 121.363 39.7292 121.706 39.7188C122.06 39.7083 122.415 39.6927 122.769 39.6719L122.613 42.7812ZM137.119 20.4688C136.983 22.5625 136.879 24.6406 136.806 26.7031C136.733 28.7552 136.697 30.8177 136.697 32.8906C136.697 34.5052 136.718 36.099 136.759 37.6719C136.811 39.2448 136.895 40.8281 137.009 42.4219L133.853 42.3281C133.436 40.974 133.025 39.6302 132.619 38.2969C132.223 36.9531 131.827 35.6198 131.431 34.2969C131.035 32.974 130.629 31.6562 130.213 30.3438C129.806 29.0312 129.384 27.724 128.947 26.4219C128.978 29.1406 129.025 31.8542 129.088 34.5625C129.16 37.2604 129.285 39.9531 129.463 42.6406L125.853 42.6094C125.978 39.2865 126.041 35.9479 126.041 32.5938C126.041 30.5312 126.02 28.4896 125.978 26.4688C125.936 24.4479 125.874 22.4167 125.791 20.375L130.166 20.4688C130.697 22.7604 131.265 25.0885 131.869 27.4531C132.473 29.8177 133.114 32.151 133.791 34.4531C133.718 32.099 133.608 29.7448 133.463 27.3906C133.327 25.026 133.176 22.7083 133.009 20.4375L137.119 20.4688ZM149.594 20.375C149.833 22.5 150 24.651 150.094 26.8281C150.188 28.9948 150.234 31.2604 150.234 33.625C150.234 34.4271 150.198 35.224 150.125 36.0156C150.062 36.7969 149.948 37.5469 149.781 38.2656C149.625 38.974 149.411 39.6354 149.141 40.25C148.88 40.8542 148.552 41.3802 148.156 41.8281C147.76 42.2656 147.292 42.6146 146.75 42.875C146.208 43.125 145.589 43.25 144.891 43.25C144.266 43.25 143.719 43.1354 143.25 42.9062C142.781 42.6667 142.38 42.3438 142.047 41.9375C141.714 41.5208 141.432 41.0365 141.203 40.4844C140.984 39.9219 140.812 39.3177 140.688 38.6719C140.562 38.0156 140.474 37.3333 140.422 36.625C140.37 35.9167 140.344 35.2031 140.344 34.4844C140.344 32.3177 140.432 30.125 140.609 27.9062C140.786 25.6771 140.995 23.3698 141.234 20.9844L144.5 21.0469C144.312 23.2865 144.135 25.5469 143.969 27.8281C143.812 30.1094 143.734 32.4583 143.734 34.875C143.734 35.5729 143.755 36.2344 143.797 36.8594C143.839 37.4844 143.911 38.0365 144.016 38.5156C144.12 38.9844 144.25 39.3594 144.406 39.6406C144.573 39.9219 144.776 40.0625 145.016 40.0625C145.297 40.0625 145.552 39.8438 145.781 39.4062C146.021 38.9583 146.219 38.375 146.375 37.6562C146.542 36.9271 146.672 36.099 146.766 35.1719C146.859 34.2448 146.906 33.3021 146.906 32.3438C146.906 31.4271 146.896 30.5052 146.875 29.5781C146.865 28.651 146.844 27.7135 146.812 26.7656C146.781 25.8073 146.74 24.8333 146.688 23.8438C146.635 22.8438 146.568 21.8073 146.484 20.7344L149.594 20.375ZM160.225 34.6406C159.902 34.6198 159.574 34.6042 159.241 34.5938C158.907 34.5833 158.574 34.5781 158.241 34.5781C158.053 34.5781 157.855 34.5833 157.647 34.5938C157.449 34.6042 157.251 34.6094 157.053 34.6094L156.991 40.1875C157.845 40.1667 158.673 40.125 159.475 40.0625C160.287 40 161.147 39.901 162.053 39.7656V43.0312C161.47 43.0104 160.902 42.9948 160.35 42.9844C159.808 42.974 159.267 42.9688 158.725 42.9688C157.912 42.9688 157.11 42.9792 156.319 43C155.527 43.0312 154.709 43.0729 153.866 43.125C153.959 41.1875 154.032 39.2708 154.084 37.375C154.147 35.4688 154.178 33.5469 154.178 31.6094C154.178 29.7552 154.152 27.9167 154.1 26.0938C154.058 24.2604 153.98 22.4167 153.866 20.5625C155.095 20.6562 156.267 20.7031 157.381 20.7031C158.09 20.7031 158.793 20.6875 159.491 20.6562C160.199 20.6146 160.954 20.5625 161.756 20.5V24.0938C161.11 23.9792 160.47 23.8906 159.834 23.8281C159.209 23.7656 158.584 23.7344 157.959 23.7344H157.35C157.246 25.0365 157.173 26.3333 157.131 27.625C157.1 28.9167 157.074 30.2135 157.053 31.5156C157.324 31.5365 157.595 31.5469 157.866 31.5469C158.147 31.5469 158.433 31.5469 158.725 31.5469C158.965 31.5469 159.209 31.5469 159.459 31.5469C159.709 31.5469 159.965 31.5365 160.225 31.5156V34.6406Z" fill="white"/>
</g>
<defs>
<filter id="filter0_ii_32_188" x="0.5" y="-2" width="226" height="65" filterUnits="userSpaceOnUse" color-interpolation-filters="sRGB">
<feFlood flood-opacity="0" result="BackgroundImageFix"/>
<feBlend mode="normal" in="SourceGraphic" in2="BackgroundImageFix" result="shape"/>
<feColorMatrix in="SourceAlpha" type="matrix" values="0 0 0 0 0 0 0 0 0 0 0 0 0 0 0 0 0 0 127 0" result="hardAlpha"/>
<feMorphology radius="6" operator="erode" in="SourceAlpha" result="effect1_innerShadow_32_188"/>
<feOffset dy="1"/>
<feComposite in2="hardAlpha" operator="arithmetic" k2="-1" k3="1"/>
<feColorMatrix type="matrix" values="0 0 0 0 0.233333 0 0 0 0 0.453882 0 0 0 0 1 0 0 0 1 0"/>
<feBlend mode="normal" in2="shape" result="effect1_innerShadow_32_188"/>
<feColorMatrix in="SourceAlpha" type="matrix" values="0 0 0 0 0 0 0 0 0 0 0 0 0 0 0 0 0 0 127 0" result="hardAlpha"/>
<feMorphology radius="3" operator="erode" in="SourceAlpha" result="effect2_innerShadow_32_188"/>
<feOffset dy="-2"/>
<feComposite in2="hardAlpha" operator="arithmetic" k2="-1" k3="1"/>
<feColorMatrix type="matrix" values="0 0 0 0 0.0784314 0 0 0 0 0.054902 0 0 0 0 0.4 0 0 0 1 0"/>
<feBlend mode="normal" in2="effect1_innerShadow_32_188" result="effect2_innerShadow_32_188"/>
</filter>
</defs>
</svg>
