<svg width="261" height="62" viewBox="0 0 261 62" fill="none" xmlns="http://www.w3.org/2000/svg">
<g filter="url(#filter0_ii_69_4139)">
<rect x="0.5" width="260" height="62" rx="31" fill="#2463FF"/>
<rect x="0.5" width="260" height="62" rx="31" fill="white" fill-opacity="0.25"/>
<path d="M70.0781 20.5625C69.974 22.625 69.8854 24.6719 69.8125 26.7031C69.7396 28.724 69.6875 30.7552 69.6562 32.7969C69.9167 32.8177 70.1771 32.8281 70.4375 32.8281C70.7083 32.8281 70.974 32.8281 71.2344 32.8281C71.5677 32.8281 71.9062 32.8229 72.25 32.8125C72.6042 32.8021 72.9583 32.7865 73.3125 32.7656C73.3333 32.3073 73.3438 31.8594 73.3438 31.4219C73.3438 30.974 73.3438 30.5156 73.3438 30.0469C73.3438 28.4635 73.3281 26.8854 73.2969 25.3125C73.2656 23.7396 73.2135 22.1562 73.1406 20.5625H76.9844C76.7969 23.0729 76.651 25.5677 76.5469 28.0469C76.4531 30.5156 76.4062 33.0052 76.4062 35.5156C76.4062 36.7448 76.4219 37.9688 76.4531 39.1875C76.4844 40.4062 76.526 41.6354 76.5781 42.875H73.0156C73.0677 41.6354 73.1146 40.401 73.1562 39.1719C73.1979 37.9427 73.2396 36.7135 73.2812 35.4844C72.6875 35.4531 72.0938 35.4271 71.5 35.4062C70.9167 35.375 70.3333 35.3594 69.75 35.3594H69.625V38.5781C69.625 39.3073 69.625 40.026 69.625 40.7344C69.625 41.4427 69.6354 42.1562 69.6562 42.875H66.0781C66.1302 41.375 66.1615 39.8958 66.1719 38.4375C66.1927 36.9688 66.2031 35.4948 66.2031 34.0156C66.2031 29.5365 66.1094 25.0521 65.9219 20.5625H70.0781ZM91.0063 32.0625C91.0063 34.1562 90.8604 35.9323 90.5688 37.3906C90.2875 38.849 89.9021 40.0365 89.4125 40.9531C88.9229 41.8594 88.3448 42.5208 87.6781 42.9375C87.0115 43.3438 86.2979 43.5469 85.5375 43.5469C84.7771 43.5469 84.0635 43.3542 83.3969 42.9688C82.7302 42.5729 82.1469 41.9271 81.6469 41.0312C81.1469 40.1354 80.751 38.9531 80.4594 37.4844C80.1781 36.0156 80.0375 34.2083 80.0375 32.0625C80.0375 29.9062 80.1781 28.0781 80.4594 26.5781C80.751 25.0677 81.1469 23.8438 81.6469 22.9062C82.1469 21.9583 82.7302 21.276 83.3969 20.8594C84.0635 20.4323 84.7771 20.2188 85.5375 20.2188C86.2979 20.2188 87.0115 20.4271 87.6781 20.8438C88.3448 21.25 88.9229 21.9219 89.4125 22.8594C89.9021 23.7969 90.2875 25.0208 90.5688 26.5312C90.8604 28.0312 91.0063 29.875 91.0063 32.0625ZM87.5219 32.0625C87.5219 30.4271 87.4698 29.0469 87.3656 27.9219C87.2615 26.7969 87.1156 25.8854 86.9281 25.1875C86.751 24.4792 86.5427 23.9688 86.3031 23.6562C86.0635 23.3438 85.8083 23.1875 85.5375 23.1875C85.2563 23.1875 84.9906 23.349 84.7406 23.6719C84.501 23.9844 84.2875 24.4948 84.1 25.2031C83.9229 25.901 83.7823 26.8177 83.6781 27.9531C83.574 29.0781 83.5219 30.4479 83.5219 32.0625C83.5219 33.6667 83.574 35.0156 83.6781 36.1094C83.7823 37.1927 83.9229 38.0677 84.1 38.7344C84.2875 39.3906 84.501 39.8594 84.7406 40.1406C84.9906 40.4219 85.2563 40.5625 85.5375 40.5625C85.8083 40.5625 86.0635 40.4167 86.3031 40.125C86.5427 39.8229 86.751 39.3385 86.9281 38.6719C87.1156 37.9948 87.2615 37.1146 87.3656 36.0312C87.4698 34.9479 87.5219 33.625 87.5219 32.0625ZM109.544 21.1094L107.356 43.6094H103.231C103.2 42.6927 103.164 41.8333 103.122 41.0312C103.091 40.2188 103.044 39.4427 102.981 38.7031C102.919 37.9635 102.846 37.2396 102.763 36.5312C102.69 35.8229 102.601 35.099 102.497 34.3594C102.403 33.6198 102.294 32.8542 102.169 32.0625C102.044 31.2604 101.908 30.4062 101.763 29.5C101.565 30.6667 101.289 32.4167 100.934 34.75C100.58 37.0729 100.153 39.974 99.6531 43.4531L95.325 43.6719L93.7625 21.2031L97.7 21.1094C97.6896 21.7552 97.6844 22.4583 97.6844 23.2188C97.674 23.875 97.6688 24.6302 97.6688 25.4844C97.6688 26.3281 97.6688 27.2292 97.6688 28.1875C97.6688 28.9479 97.6688 29.7188 97.6688 30.5C97.6688 31.2812 97.6688 32.0521 97.6688 32.8125C97.6792 33.5625 97.6844 34.2865 97.6844 34.9844C97.6948 35.6823 97.7104 36.3177 97.7313 36.8906L99.8719 23.2812H103.481L105.184 36.25C105.205 35.4792 105.226 34.6667 105.247 33.8125C105.278 32.9479 105.304 32.0781 105.325 31.2031C105.346 30.3281 105.361 29.4635 105.372 28.6094C105.393 27.7552 105.414 26.9375 105.434 26.1562C105.476 24.3333 105.513 22.5156 105.544 20.7031L109.544 21.1094ZM126.931 23.8281C126.598 23.8073 126.213 23.7917 125.775 23.7812C125.348 23.7708 124.89 23.7656 124.4 23.7656C124.327 24.7344 124.265 25.7396 124.213 26.7812C124.171 27.8125 124.134 28.8646 124.103 29.9375C124.072 31 124.051 32.0729 124.041 33.1562C124.03 34.2292 124.025 35.2917 124.025 36.3438C124.025 37.5417 124.03 38.7031 124.041 39.8281C124.061 40.9427 124.098 42.0208 124.15 43.0625H120.822C120.916 41.2917 120.989 39.4062 121.041 37.4062C121.093 35.4062 121.119 33.3906 121.119 31.3594C121.119 30.0365 121.103 28.7448 121.072 27.4844C121.041 26.224 121.009 24.9948 120.978 23.7969C120.478 23.7969 120.004 23.8021 119.556 23.8125C119.108 23.8229 118.707 23.8385 118.353 23.8594L118.384 20.5938C118.759 20.625 119.181 20.651 119.65 20.6719C120.119 20.6823 120.608 20.6927 121.119 20.7031C121.64 20.7135 122.171 20.724 122.713 20.7344C123.254 20.7344 123.785 20.7344 124.306 20.7344C124.827 20.7344 125.317 20.7344 125.775 20.7344C126.244 20.7344 126.66 20.724 127.025 20.7031L126.931 23.8281ZM140.219 32.0625C140.219 34.1562 140.073 35.9323 139.781 37.3906C139.5 38.849 139.115 40.0365 138.625 40.9531C138.135 41.8594 137.557 42.5208 136.891 42.9375C136.224 43.3438 135.51 43.5469 134.75 43.5469C133.99 43.5469 133.276 43.3542 132.609 42.9688C131.943 42.5729 131.359 41.9271 130.859 41.0312C130.359 40.1354 129.964 38.9531 129.672 37.4844C129.391 36.0156 129.25 34.2083 129.25 32.0625C129.25 29.9062 129.391 28.0781 129.672 26.5781C129.964 25.0677 130.359 23.8438 130.859 22.9062C131.359 21.9583 131.943 21.276 132.609 20.8594C133.276 20.4323 133.99 20.2188 134.75 20.2188C135.51 20.2188 136.224 20.4271 136.891 20.8438C137.557 21.25 138.135 21.9219 138.625 22.8594C139.115 23.7969 139.5 25.0208 139.781 26.5312C140.073 28.0312 140.219 29.875 140.219 32.0625ZM136.734 32.0625C136.734 30.4271 136.682 29.0469 136.578 27.9219C136.474 26.7969 136.328 25.8854 136.141 25.1875C135.964 24.4792 135.755 23.9688 135.516 23.6562C135.276 23.3438 135.021 23.1875 134.75 23.1875C134.469 23.1875 134.203 23.349 133.953 23.6719C133.714 23.9844 133.5 24.4948 133.312 25.2031C133.135 25.901 132.995 26.8177 132.891 27.9531C132.786 29.0781 132.734 30.4479 132.734 32.0625C132.734 33.6667 132.786 35.0156 132.891 36.1094C132.995 37.1927 133.135 38.0677 133.312 38.7344C133.5 39.3906 133.714 39.8594 133.953 40.1406C134.203 40.4219 134.469 40.5625 134.75 40.5625C135.021 40.5625 135.276 40.4167 135.516 40.125C135.755 39.8229 135.964 39.3385 136.141 38.6719C136.328 37.9948 136.474 37.1146 136.578 36.0312C136.682 34.9479 136.734 33.625 136.734 32.0625ZM159.684 27.4844C159.684 28.3802 159.565 29.2604 159.325 30.125C159.096 30.9792 158.736 31.7708 158.247 32.5C157.768 33.2292 157.158 33.875 156.419 34.4375C155.679 34.9896 154.804 35.4115 153.794 35.7031C153.815 36.9635 153.841 38.2135 153.872 39.4531C153.914 40.6823 153.96 41.9062 154.012 43.125H150.2C150.367 40.7604 150.486 38.3958 150.559 36.0312C150.643 33.6667 150.684 31.2865 150.684 28.8906C150.684 27.5052 150.674 26.125 150.653 24.75C150.632 23.3646 150.591 21.9688 150.528 20.5625C151.08 20.3958 151.637 20.2865 152.2 20.2344C152.773 20.1823 153.257 20.1562 153.653 20.1562C153.934 20.1562 154.278 20.1875 154.684 20.25C155.101 20.3125 155.528 20.4375 155.966 20.625C156.414 20.8021 156.856 21.0573 157.294 21.3906C157.742 21.7135 158.143 22.151 158.497 22.7031C158.851 23.2448 159.137 23.9062 159.356 24.6875C159.575 25.4688 159.684 26.401 159.684 27.4844ZM153.794 33.0469C154.137 32.9219 154.434 32.7552 154.684 32.5469C154.945 32.3385 155.169 32.1094 155.356 31.8594C155.554 31.599 155.716 31.3229 155.841 31.0312C155.976 30.7396 156.085 30.4531 156.169 30.1719C156.367 29.5156 156.481 28.8021 156.512 28.0312C156.512 28.0208 156.507 27.901 156.497 27.6719C156.497 27.4427 156.471 27.1562 156.419 26.8125C156.377 26.4583 156.304 26.0729 156.2 25.6562C156.096 25.2292 155.95 24.8229 155.762 24.4375C155.585 24.0521 155.351 23.7083 155.059 23.4062C154.778 23.0938 154.429 22.875 154.012 22.75C153.929 24.3646 153.872 25.9844 153.841 27.6094C153.809 29.224 153.794 30.8542 153.794 32.5V33.0469ZM170.784 43.0312C170.201 43.0104 169.633 42.9948 169.081 42.9844C168.54 42.974 167.998 42.9688 167.456 42.9688C166.644 42.9688 165.842 42.9792 165.05 43C164.258 43.0312 163.441 43.0729 162.597 43.125C162.691 41.1875 162.764 39.2708 162.816 37.375C162.878 35.4688 162.909 33.5469 162.909 31.6094C162.909 29.7552 162.883 27.9167 162.831 26.0938C162.79 24.2604 162.711 22.4167 162.597 20.5625C162.701 20.5729 162.821 20.5781 162.956 20.5781C163.071 20.5885 163.211 20.5938 163.378 20.5938C163.545 20.5938 163.732 20.5938 163.941 20.5938C164.274 20.5938 164.633 20.5885 165.019 20.5781C165.415 20.5573 165.81 20.5312 166.206 20.5C166.071 22 165.972 23.5781 165.909 25.2344C165.857 26.8906 165.821 28.5677 165.8 30.2656C165.79 31.9531 165.779 33.6406 165.769 35.3281C165.769 37.0052 165.753 38.625 165.722 40.1875C166.576 40.1667 167.404 40.125 168.206 40.0625C169.019 40 169.878 39.901 170.784 39.7656V43.0312ZM180.025 43.125C179.973 42.4062 179.921 41.6823 179.869 40.9531C179.827 40.224 179.775 39.4896 179.713 38.75C179.254 38.7188 178.811 38.6875 178.384 38.6562C177.957 38.625 177.525 38.6094 177.088 38.6094H176.884C176.832 39.3594 176.785 40.099 176.744 40.8281C176.702 41.5573 176.666 42.2812 176.634 43L172.728 42.9375C173.374 39.2188 173.957 35.5104 174.478 31.8125C174.999 28.1146 175.442 24.3854 175.806 20.625L180.509 20.7031C180.905 24.4219 181.379 28.1198 181.931 31.7969C182.494 35.4635 183.15 39.1562 183.9 42.875L180.025 43.125ZM178.197 24.5625C177.989 26.4792 177.791 28.3906 177.603 30.2969C177.416 32.2031 177.244 34.125 177.088 36.0625C177.306 36.0833 177.53 36.0938 177.759 36.0938C177.989 36.0938 178.223 36.0938 178.463 36.0938H179.478C179.301 34.1562 179.103 32.2344 178.884 30.3281C178.666 28.4219 178.436 26.5 178.197 24.5625ZM196.312 20.5938C195.479 23.2396 194.698 25.9115 193.969 28.6094C193.25 31.2969 192.568 33.8958 191.922 36.4062V37.375C191.922 37.8958 191.927 38.3906 191.938 38.8594C191.958 39.3177 191.979 39.776 192 40.2344C192.021 40.6823 192.047 41.1458 192.078 41.625C192.12 42.0938 192.167 42.5938 192.219 43.125H188.469C188.552 42.4792 188.625 41.8802 188.688 41.3281C188.75 40.7656 188.797 40.2135 188.828 39.6719C188.87 39.1302 188.901 38.5729 188.922 38C188.943 37.4271 188.953 36.8021 188.953 36.125C188.661 34.9271 188.354 33.6823 188.031 32.3906C187.719 31.099 187.396 29.8021 187.062 28.5C186.729 27.1979 186.396 25.9062 186.062 24.625C185.729 23.3333 185.401 22.0885 185.078 20.8906L188.984 20.5625C189.026 21.4167 189.094 22.3229 189.188 23.2812C189.292 24.2292 189.411 25.1979 189.547 26.1875C189.682 27.1771 189.833 28.1771 190 29.1875C190.167 30.1979 190.339 31.1875 190.516 32.1562C190.714 31.1667 190.906 30.1615 191.094 29.1406C191.292 28.1094 191.474 27.0938 191.641 26.0938C191.807 25.0938 191.958 24.1198 192.094 23.1719C192.24 22.224 192.365 21.3333 192.469 20.5L196.312 20.5938Z" fill="white"/>
</g>
<defs>
<filter id="filter0_ii_69_4139" x="0.5" y="-2" width="260" height="65" filterUnits="userSpaceOnUse" color-interpolation-filters="sRGB">
<feFlood flood-opacity="0" result="BackgroundImageFix"/>
<feBlend mode="normal" in="SourceGraphic" in2="BackgroundImageFix" result="shape"/>
<feColorMatrix in="SourceAlpha" type="matrix" values="0 0 0 0 0 0 0 0 0 0 0 0 0 0 0 0 0 0 127 0" result="hardAlpha"/>
<feMorphology radius="6" operator="erode" in="SourceAlpha" result="effect1_innerShadow_69_4139"/>
<feOffset dy="1"/>
<feComposite in2="hardAlpha" operator="arithmetic" k2="-1" k3="1"/>
<feColorMatrix type="matrix" values="0 0 0 0 0.233333 0 0 0 0 0.453882 0 0 0 0 1 0 0 0 1 0"/>
<feBlend mode="normal" in2="shape" result="effect1_innerShadow_69_4139"/>
<feColorMatrix in="SourceAlpha" type="matrix" values="0 0 0 0 0 0 0 0 0 0 0 0 0 0 0 0 0 0 127 0" result="hardAlpha"/>
<feMorphology radius="3" operator="erode" in="SourceAlpha" result="effect2_innerShadow_69_4139"/>
<feOffset dy="-2"/>
<feComposite in2="hardAlpha" operator="arithmetic" k2="-1" k3="1"/>
<feColorMatrix type="matrix" values="0 0 0 0 0.0784314 0 0 0 0 0.054902 0 0 0 0 0.4 0 0 0 1 0"/>
<feBlend mode="normal" in2="effect1_innerShadow_69_4139" result="effect2_innerShadow_69_4139"/>
</filter>
</defs>
</svg>
