<svg width="275" height="62" viewBox="0 0 275 62" fill="none" xmlns="http://www.w3.org/2000/svg">
<g filter="url(#filter0_ii_32_192)">
<rect width="275" height="62" rx="31" fill="#2463FF"/>
<path d="M76.7469 20.4688C76.6115 22.5625 76.5073 24.6406 76.4344 26.7031C76.3615 28.7552 76.325 30.8177 76.325 32.8906C76.325 34.5052 76.3458 36.099 76.3875 37.6719C76.4396 39.2448 76.5229 40.8281 76.6375 42.4219L73.4812 42.3281C73.0646 40.974 72.6531 39.6302 72.2469 38.2969C71.851 36.9531 71.4552 35.6198 71.0594 34.2969C70.6635 32.974 70.2573 31.6562 69.8406 30.3438C69.4344 29.0312 69.0125 27.724 68.575 26.4219C68.6062 29.1406 68.6531 31.8542 68.7156 34.5625C68.7885 37.2604 68.9135 39.9531 69.0906 42.6406L65.4812 42.6094C65.6062 39.2865 65.6687 35.9479 65.6687 32.5938C65.6687 30.5312 65.6479 28.4896 65.6062 26.4688C65.5646 24.4479 65.5021 22.4167 65.4187 20.375L69.7937 20.4688C70.325 22.7604 70.8927 25.0885 71.4969 27.4531C72.101 29.8177 72.7417 32.151 73.4187 34.4531C73.3458 32.099 73.2365 29.7448 73.0906 27.3906C72.9552 25.026 72.8042 22.7083 72.6375 20.4375L76.7469 20.4688ZM86.6594 34.6406C86.3365 34.6198 86.0083 34.6042 85.675 34.5938C85.3417 34.5833 85.0083 34.5781 84.675 34.5781C84.4875 34.5781 84.2896 34.5833 84.0812 34.5938C83.8833 34.6042 83.6854 34.6094 83.4875 34.6094L83.425 40.1875C84.2792 40.1667 85.1073 40.125 85.9094 40.0625C86.7219 40 87.5812 39.901 88.4875 39.7656V43.0312C87.9042 43.0104 87.3365 42.9948 86.7844 42.9844C86.2427 42.974 85.701 42.9688 85.1594 42.9688C84.3469 42.9688 83.5448 42.9792 82.7531 43C81.9615 43.0312 81.1437 43.0729 80.3 43.125C80.3937 41.1875 80.4667 39.2708 80.5187 37.375C80.5812 35.4688 80.6125 33.5469 80.6125 31.6094C80.6125 29.7552 80.5865 27.9167 80.5344 26.0938C80.4927 24.2604 80.4146 22.4167 80.3 20.5625C81.5292 20.6562 82.701 20.7031 83.8156 20.7031C84.524 20.7031 85.2271 20.6875 85.925 20.6562C86.6333 20.6146 87.3885 20.5625 88.1906 20.5V24.0938C87.5448 23.9792 86.9042 23.8906 86.2687 23.8281C85.6437 23.7656 85.0187 23.7344 84.3937 23.7344H83.7844C83.6802 25.0365 83.6073 26.3333 83.5656 27.625C83.5344 28.9167 83.5083 30.2135 83.4875 31.5156C83.7583 31.5365 84.0292 31.5469 84.3 31.5469C84.5812 31.5469 84.8677 31.5469 85.1594 31.5469C85.399 31.5469 85.6437 31.5469 85.8937 31.5469C86.1437 31.5469 86.399 31.5365 86.6594 31.5156V34.6406ZM106.822 21.1094L104.634 43.6094H100.509C100.478 42.6927 100.442 41.8333 100.4 41.0312C100.369 40.2188 100.322 39.4427 100.259 38.7031C100.197 37.9635 100.124 37.2396 100.041 36.5312C99.9677 35.8229 99.8792 35.099 99.775 34.3594C99.6812 33.6198 99.5719 32.8542 99.4469 32.0625C99.3219 31.2604 99.1865 30.4062 99.0406 29.5C98.8427 30.6667 98.5667 32.4167 98.2125 34.75C97.8583 37.0729 97.4312 39.974 96.9312 43.4531L92.6031 43.6719L91.0406 21.2031L94.9781 21.1094C94.9677 21.7552 94.9625 22.4583 94.9625 23.2188C94.9521 23.875 94.9469 24.6302 94.9469 25.4844C94.9469 26.3281 94.9469 27.2292 94.9469 28.1875C94.9469 28.9479 94.9469 29.7188 94.9469 30.5C94.9469 31.2812 94.9469 32.0521 94.9469 32.8125C94.9573 33.5625 94.9625 34.2865 94.9625 34.9844C94.9729 35.6823 94.9885 36.3177 95.0094 36.8906L97.15 23.2812H100.759L102.462 36.25C102.483 35.4792 102.504 34.6667 102.525 33.8125C102.556 32.9479 102.582 32.0781 102.603 31.2031C102.624 30.3281 102.64 29.4635 102.65 28.6094C102.671 27.7552 102.692 26.9375 102.712 26.1562C102.754 24.3333 102.791 22.5156 102.822 20.7031L106.822 21.1094ZM125.428 42.6094C125.022 42.7969 124.621 42.9375 124.225 43.0312C123.829 43.1354 123.475 43.2135 123.162 43.2656C122.798 43.3177 122.444 43.349 122.1 43.3594C121.725 43.3594 121.319 43.2917 120.881 43.1562C120.454 43.0208 120.022 42.7917 119.584 42.4688C119.147 42.1354 118.725 41.6875 118.319 41.125C117.912 40.5521 117.553 39.8385 117.241 38.9844C116.928 38.1198 116.678 37.0885 116.491 35.8906C116.303 34.6927 116.209 33.2969 116.209 31.7031C116.209 30.1094 116.319 28.7188 116.537 27.5312C116.767 26.3438 117.058 25.3281 117.412 24.4844C117.777 23.6302 118.183 22.9323 118.631 22.3906C119.09 21.8385 119.553 21.4062 120.022 21.0938C120.491 20.7708 120.944 20.5521 121.381 20.4375C121.829 20.3125 122.215 20.25 122.537 20.25C122.84 20.2604 123.136 20.2917 123.428 20.3438C123.678 20.3958 123.939 20.474 124.209 20.5781C124.491 20.6823 124.735 20.8281 124.944 21.0156L124.631 24.1562C124.34 24.0104 124.064 23.9062 123.803 23.8438C123.553 23.7708 123.314 23.7344 123.084 23.7344C122.647 23.7344 122.256 23.8542 121.912 24.0938C121.579 24.3229 121.287 24.6302 121.037 25.0156C120.798 25.401 120.59 25.8385 120.412 26.3281C120.246 26.8177 120.11 27.3177 120.006 27.8281C119.746 29.026 119.6 30.3906 119.569 31.9219C119.6 33.4427 119.751 34.7969 120.022 35.9844C120.136 36.4948 120.277 36.9948 120.444 37.4844C120.621 37.9635 120.834 38.3958 121.084 38.7812C121.334 39.1562 121.626 39.4583 121.959 39.6875C122.303 39.9167 122.699 40.0312 123.147 40.0312C123.636 40.0312 124.204 39.8594 124.85 39.5156L125.428 42.6094ZM134.559 43.125C134.507 42.4062 134.455 41.6823 134.403 40.9531C134.361 40.224 134.309 39.4896 134.247 38.75C133.789 38.7188 133.346 38.6875 132.919 38.6562C132.492 38.625 132.059 38.6094 131.622 38.6094H131.419C131.367 39.3594 131.32 40.099 131.278 40.8281C131.236 41.5573 131.2 42.2812 131.169 43L127.262 42.9375C127.908 39.2188 128.492 35.5104 129.012 31.8125C129.533 28.1146 129.976 24.3854 130.341 20.625L135.044 20.7031C135.44 24.4219 135.914 28.1198 136.466 31.7969C137.028 35.4635 137.684 39.1562 138.434 42.875L134.559 43.125ZM132.731 24.5625C132.523 26.4792 132.325 28.3906 132.137 30.2969C131.95 32.2031 131.778 34.125 131.622 36.0625C131.841 36.0833 132.065 36.0938 132.294 36.0938C132.523 36.0938 132.757 36.0938 132.997 36.0938H134.012C133.835 34.1562 133.637 32.2344 133.419 30.3281C133.2 28.4219 132.971 26.5 132.731 24.5625ZM148.441 23.8281C148.107 23.8073 147.722 23.7917 147.284 23.7812C146.857 23.7708 146.399 23.7656 145.909 23.7656C145.836 24.7344 145.774 25.7396 145.722 26.7812C145.68 27.8125 145.644 28.8646 145.612 29.9375C145.581 31 145.56 32.0729 145.55 33.1562C145.54 34.2292 145.534 35.2917 145.534 36.3438C145.534 37.5417 145.54 38.7031 145.55 39.8281C145.571 40.9427 145.607 42.0208 145.659 43.0625H142.331C142.425 41.2917 142.498 39.4062 142.55 37.4062C142.602 35.4062 142.628 33.3906 142.628 31.3594C142.628 30.0365 142.612 28.7448 142.581 27.4844C142.55 26.224 142.519 24.9948 142.487 23.7969C141.987 23.7969 141.514 23.8021 141.066 23.8125C140.618 23.8229 140.217 23.8385 139.862 23.8594L139.894 20.5938C140.269 20.625 140.691 20.651 141.159 20.6719C141.628 20.6823 142.118 20.6927 142.628 20.7031C143.149 20.7135 143.68 20.724 144.222 20.7344C144.764 20.7344 145.295 20.7344 145.816 20.7344C146.336 20.7344 146.826 20.7344 147.284 20.7344C147.753 20.7344 148.17 20.724 148.534 20.7031L148.441 23.8281ZM157.728 34.6406C157.405 34.6198 157.077 34.6042 156.744 34.5938C156.41 34.5833 156.077 34.5781 155.744 34.5781C155.556 34.5781 155.358 34.5833 155.15 34.5938C154.952 34.6042 154.754 34.6094 154.556 34.6094L154.494 40.1875C155.348 40.1667 156.176 40.125 156.978 40.0625C157.791 40 158.65 39.901 159.556 39.7656V43.0312C158.973 43.0104 158.405 42.9948 157.853 42.9844C157.311 42.974 156.77 42.9688 156.228 42.9688C155.416 42.9688 154.614 42.9792 153.822 43C153.03 43.0312 152.212 43.0729 151.369 43.125C151.462 41.1875 151.535 39.2708 151.587 37.375C151.65 35.4688 151.681 33.5469 151.681 31.6094C151.681 29.7552 151.655 27.9167 151.603 26.0938C151.561 24.2604 151.483 22.4167 151.369 20.5625C152.598 20.6562 153.77 20.7031 154.884 20.7031C155.593 20.7031 156.296 20.6875 156.994 20.6562C157.702 20.6146 158.457 20.5625 159.259 20.5V24.0938C158.614 23.9792 157.973 23.8906 157.337 23.8281C156.712 23.7656 156.087 23.7344 155.462 23.7344H154.853C154.749 25.0365 154.676 26.3333 154.634 27.625C154.603 28.9167 154.577 30.2135 154.556 31.5156C154.827 31.5365 155.098 31.5469 155.369 31.5469C155.65 31.5469 155.936 31.5469 156.228 31.5469C156.468 31.5469 156.712 31.5469 156.962 31.5469C157.212 31.5469 157.468 31.5365 157.728 31.5156V34.6406ZM171.297 31.7969C171.245 32.1719 171.188 32.599 171.125 33.0781C171.073 33.5573 171.026 34.0729 170.984 34.625C170.943 35.1667 170.906 35.7396 170.875 36.3438C170.854 36.9375 170.844 37.5365 170.844 38.1406C170.844 38.276 170.849 38.474 170.859 38.7344C170.88 38.9844 170.901 39.2656 170.922 39.5781C170.943 39.8802 170.964 40.1979 170.984 40.5312C171.016 40.8542 171.042 41.1615 171.062 41.4531C171.094 41.7344 171.12 41.9792 171.141 42.1875C171.161 42.3958 171.182 42.5365 171.203 42.6094C170.797 42.7969 170.396 42.9375 170 43.0312C169.604 43.1354 169.25 43.2135 168.938 43.2656C168.573 43.3177 168.219 43.349 167.875 43.3594C167.5 43.3594 167.094 43.2917 166.656 43.1562C166.229 43.0208 165.797 42.7917 165.359 42.4688C164.922 42.1354 164.5 41.6875 164.094 41.125C163.688 40.5521 163.328 39.8385 163.016 38.9844C162.703 38.1198 162.453 37.0885 162.266 35.8906C162.078 34.6927 161.984 33.2969 161.984 31.7031C161.984 30.1094 162.094 28.7188 162.312 27.5312C162.542 26.3438 162.833 25.3281 163.188 24.4844C163.552 23.6302 163.958 22.9323 164.406 22.3906C164.865 21.8385 165.328 21.4062 165.797 21.0938C166.266 20.7708 166.719 20.5521 167.156 20.4375C167.604 20.3125 167.99 20.25 168.312 20.25C168.615 20.2604 168.911 20.2917 169.203 20.3438C169.453 20.3958 169.714 20.474 169.984 20.5781C170.266 20.6823 170.51 20.8281 170.719 21.0156L170.406 24.1562C170.115 24.0104 169.839 23.9062 169.578 23.8438C169.328 23.7708 169.089 23.7344 168.859 23.7344C168.422 23.7344 168.031 23.8542 167.688 24.0938C167.354 24.3229 167.062 24.6302 166.812 25.0156C166.573 25.401 166.365 25.8385 166.188 26.3281C166.021 26.8177 165.885 27.3177 165.781 27.8281C165.521 29.026 165.375 30.3906 165.344 31.9219C165.375 33.2448 165.495 34.4583 165.703 35.5625C165.797 36.0312 165.911 36.5 166.047 36.9688C166.193 37.4375 166.365 37.875 166.562 38.2812C166.771 38.6771 167.01 39.0208 167.281 39.3125C167.562 39.6042 167.885 39.8073 168.25 39.9219C168.229 38.5677 168.161 37.224 168.047 35.8906C167.943 34.5573 167.786 33.2135 167.578 31.8594L171.297 31.7969ZM185.053 32.0625C185.053 34.1562 184.907 35.9323 184.616 37.3906C184.334 38.849 183.949 40.0365 183.459 40.9531C182.97 41.8594 182.392 42.5208 181.725 42.9375C181.058 43.3438 180.345 43.5469 179.584 43.5469C178.824 43.5469 178.11 43.3542 177.444 42.9688C176.777 42.5729 176.194 41.9271 175.694 41.0312C175.194 40.1354 174.798 38.9531 174.506 37.4844C174.225 36.0156 174.084 34.2083 174.084 32.0625C174.084 29.9062 174.225 28.0781 174.506 26.5781C174.798 25.0677 175.194 23.8438 175.694 22.9062C176.194 21.9583 176.777 21.276 177.444 20.8594C178.11 20.4323 178.824 20.2188 179.584 20.2188C180.345 20.2188 181.058 20.4271 181.725 20.8438C182.392 21.25 182.97 21.9219 183.459 22.8594C183.949 23.7969 184.334 25.0208 184.616 26.5312C184.907 28.0312 185.053 29.875 185.053 32.0625ZM181.569 32.0625C181.569 30.4271 181.517 29.0469 181.412 27.9219C181.308 26.7969 181.162 25.8854 180.975 25.1875C180.798 24.4792 180.59 23.9688 180.35 23.6562C180.11 23.3438 179.855 23.1875 179.584 23.1875C179.303 23.1875 179.037 23.349 178.787 23.6719C178.548 23.9844 178.334 24.4948 178.147 25.2031C177.97 25.901 177.829 26.8177 177.725 27.9531C177.621 29.0781 177.569 30.4479 177.569 32.0625C177.569 33.6667 177.621 35.0156 177.725 36.1094C177.829 37.1927 177.97 38.0677 178.147 38.7344C178.334 39.3906 178.548 39.8594 178.787 40.1406C179.037 40.4219 179.303 40.5625 179.584 40.5625C179.855 40.5625 180.11 40.4167 180.35 40.125C180.59 39.8229 180.798 39.3385 180.975 38.6719C181.162 37.9948 181.308 37.1146 181.412 36.0312C181.517 34.9479 181.569 33.625 181.569 32.0625ZM197.497 27.25C197.497 27.9479 197.429 28.651 197.294 29.3594C197.169 30.0573 196.96 30.7344 196.669 31.3906C196.377 32.0365 196.002 32.6458 195.544 33.2188C195.085 33.7812 194.523 34.2812 193.856 34.7188C194.44 36.2083 195.08 37.6406 195.778 39.0156C196.486 40.3802 197.273 41.6979 198.137 42.9688L194.231 43.1875L191.575 35.6406C191.617 36.9115 191.669 38.1719 191.731 39.4219C191.794 40.6719 191.872 41.9062 191.966 43.125H188.153C188.32 40.7604 188.44 38.3958 188.512 36.0312C188.596 33.6667 188.637 31.2865 188.637 28.8906C188.637 27.5052 188.627 26.125 188.606 24.75C188.585 23.3646 188.544 21.9688 188.481 20.5625C189.033 20.3958 189.591 20.2865 190.153 20.2344C190.726 20.1823 191.21 20.1562 191.606 20.1562C191.887 20.1562 192.226 20.1875 192.622 20.25C193.028 20.3021 193.45 20.4167 193.887 20.5938C194.325 20.7708 194.757 21.0208 195.184 21.3438C195.622 21.6667 196.007 22.0938 196.341 22.625C196.684 23.1458 196.96 23.7865 197.169 24.5469C197.387 25.2969 197.497 26.1979 197.497 27.25ZM191.544 33.1094C191.908 33.0052 192.226 32.8542 192.497 32.6562C192.778 32.4479 193.023 32.2135 193.231 31.9531C193.44 31.6927 193.611 31.4167 193.747 31.125C193.893 30.8333 194.012 30.5417 194.106 30.25C194.315 29.5729 194.434 28.8333 194.466 28.0312C194.466 28.0104 194.46 27.8854 194.45 27.6562C194.45 27.4167 194.424 27.1198 194.372 26.7656C194.32 26.4115 194.242 26.026 194.137 25.6094C194.044 25.1927 193.903 24.7917 193.716 24.4062C193.528 24.0104 193.289 23.6615 192.997 23.3594C192.705 23.0573 192.351 22.8438 191.934 22.7188C191.809 24.3542 191.71 25.9844 191.637 27.6094C191.575 29.224 191.544 30.8542 191.544 32.5V33.1094ZM210.816 20.5938C209.982 23.2396 209.201 25.9115 208.472 28.6094C207.753 31.2969 207.071 33.8958 206.425 36.4062V37.375C206.425 37.8958 206.43 38.3906 206.441 38.8594C206.461 39.3177 206.482 39.776 206.503 40.2344C206.524 40.6823 206.55 41.1458 206.581 41.625C206.623 42.0938 206.67 42.5938 206.722 43.125H202.972C203.055 42.4792 203.128 41.8802 203.191 41.3281C203.253 40.7656 203.3 40.2135 203.331 39.6719C203.373 39.1302 203.404 38.5729 203.425 38C203.446 37.4271 203.456 36.8021 203.456 36.125C203.165 34.9271 202.857 33.6823 202.534 32.3906C202.222 31.099 201.899 29.8021 201.566 28.5C201.232 27.1979 200.899 25.9062 200.566 24.625C200.232 23.3333 199.904 22.0885 199.581 20.8906L203.488 20.5625C203.529 21.4167 203.597 22.3229 203.691 23.2812C203.795 24.2292 203.915 25.1979 204.05 26.1875C204.185 27.1771 204.336 28.1771 204.503 29.1875C204.67 30.1979 204.842 31.1875 205.019 32.1562C205.217 31.1667 205.409 30.1615 205.597 29.1406C205.795 28.1094 205.977 27.0938 206.144 26.0938C206.31 25.0938 206.461 24.1198 206.597 23.1719C206.743 22.224 206.868 21.3333 206.972 20.5L210.816 20.5938Z" fill="white"/>
</g>
<defs>
<filter id="filter0_ii_32_192" x="0" y="-2" width="275" height="65" filterUnits="userSpaceOnUse" color-interpolation-filters="sRGB">
<feFlood flood-opacity="0" result="BackgroundImageFix"/>
<feBlend mode="normal" in="SourceGraphic" in2="BackgroundImageFix" result="shape"/>
<feColorMatrix in="SourceAlpha" type="matrix" values="0 0 0 0 0 0 0 0 0 0 0 0 0 0 0 0 0 0 127 0" result="hardAlpha"/>
<feMorphology radius="6" operator="erode" in="SourceAlpha" result="effect1_innerShadow_32_192"/>
<feOffset dy="1"/>
<feComposite in2="hardAlpha" operator="arithmetic" k2="-1" k3="1"/>
<feColorMatrix type="matrix" values="0 0 0 0 0.233333 0 0 0 0 0.453882 0 0 0 0 1 0 0 0 1 0"/>
<feBlend mode="normal" in2="shape" result="effect1_innerShadow_32_192"/>
<feColorMatrix in="SourceAlpha" type="matrix" values="0 0 0 0 0 0 0 0 0 0 0 0 0 0 0 0 0 0 127 0" result="hardAlpha"/>
<feMorphology radius="3" operator="erode" in="SourceAlpha" result="effect2_innerShadow_32_192"/>
<feOffset dy="-2"/>
<feComposite in2="hardAlpha" operator="arithmetic" k2="-1" k3="1"/>
<feColorMatrix type="matrix" values="0 0 0 0 0.0784314 0 0 0 0 0.054902 0 0 0 0 0.4 0 0 0 1 0"/>
<feBlend mode="normal" in2="effect1_innerShadow_32_192" result="effect2_innerShadow_32_192"/>
</filter>
</defs>
</svg>
