<svg width="251" height="62" viewBox="0 0 251 62" fill="none" xmlns="http://www.w3.org/2000/svg">
<g filter="url(#filter0_ii_32_389)">
<rect width="251" height="62" rx="31" fill="#2463FF"/>
<path d="M74.7188 27.4844C74.7188 28.3802 74.599 29.2604 74.3594 30.125C74.1302 30.9792 73.7708 31.7708 73.2812 32.5C72.8021 33.2292 72.1927 33.875 71.4531 34.4375C70.7135 34.9896 69.8385 35.4115 68.8281 35.7031C68.849 36.9635 68.875 38.2135 68.9062 39.4531C68.9479 40.6823 68.9948 41.9062 69.0469 43.125H65.2344C65.401 40.7604 65.5208 38.3958 65.5938 36.0312C65.6771 33.6667 65.7188 31.2865 65.7188 28.8906C65.7188 27.5052 65.7083 26.125 65.6875 24.75C65.6667 23.3646 65.625 21.9688 65.5625 20.5625C66.1146 20.3958 66.6719 20.2865 67.2344 20.2344C67.8073 20.1823 68.2917 20.1562 68.6875 20.1562C68.9688 20.1562 69.3125 20.1875 69.7188 20.25C70.1354 20.3125 70.5625 20.4375 71 20.625C71.4479 20.8021 71.8906 21.0573 72.3281 21.3906C72.776 21.7135 73.1771 22.151 73.5312 22.7031C73.8854 23.2448 74.1719 23.9062 74.3906 24.6875C74.6094 25.4688 74.7188 26.401 74.7188 27.4844ZM68.8281 33.0469C69.1719 32.9219 69.4688 32.7552 69.7188 32.5469C69.9792 32.3385 70.2031 32.1094 70.3906 31.8594C70.5885 31.599 70.75 31.3229 70.875 31.0312C71.0104 30.7396 71.1198 30.4531 71.2031 30.1719C71.401 29.5156 71.5156 28.8021 71.5469 28.0312C71.5469 28.0208 71.5417 27.901 71.5312 27.6719C71.5312 27.4427 71.5052 27.1562 71.4531 26.8125C71.4115 26.4583 71.3385 26.0729 71.2344 25.6562C71.1302 25.2292 70.9844 24.8229 70.7969 24.4375C70.6198 24.0521 70.3854 23.7083 70.0938 23.4062C69.8125 23.0938 69.4635 22.875 69.0469 22.75C68.9635 24.3646 68.9062 25.9844 68.875 27.6094C68.8438 29.224 68.8281 30.8542 68.8281 32.5V33.0469ZM85.8188 43.0312C85.2354 43.0104 84.6677 42.9948 84.1156 42.9844C83.574 42.974 83.0323 42.9688 82.4906 42.9688C81.6781 42.9688 80.876 42.9792 80.0844 43C79.2927 43.0312 78.475 43.0729 77.6313 43.125C77.725 41.1875 77.7979 39.2708 77.85 37.375C77.9125 35.4688 77.9438 33.5469 77.9438 31.6094C77.9438 29.7552 77.9177 27.9167 77.8656 26.0938C77.824 24.2604 77.7458 22.4167 77.6313 20.5625C77.7354 20.5729 77.8552 20.5781 77.9906 20.5781C78.1052 20.5885 78.2458 20.5938 78.4125 20.5938C78.5792 20.5938 78.7667 20.5938 78.975 20.5938C79.3083 20.5938 79.6677 20.5885 80.0531 20.5781C80.449 20.5573 80.8448 20.5312 81.2406 20.5C81.1052 22 81.0063 23.5781 80.9438 25.2344C80.8917 26.8906 80.8552 28.5677 80.8344 30.2656C80.824 31.9531 80.8135 33.6406 80.8031 35.3281C80.8031 37.0052 80.7875 38.625 80.7563 40.1875C81.6104 40.1667 82.4385 40.125 83.2406 40.0625C84.0531 40 84.9125 39.901 85.8188 39.7656V43.0312ZM95.0594 43.125C95.0073 42.4062 94.9552 41.6823 94.9031 40.9531C94.8615 40.224 94.8094 39.4896 94.7469 38.75C94.2885 38.7188 93.8458 38.6875 93.4188 38.6562C92.9917 38.625 92.5594 38.6094 92.1219 38.6094H91.9188C91.8667 39.3594 91.8198 40.099 91.7781 40.8281C91.7365 41.5573 91.7 42.2812 91.6688 43L87.7625 42.9375C88.4083 39.2188 88.9917 35.5104 89.5125 31.8125C90.0333 28.1146 90.476 24.3854 90.8406 20.625L95.5438 20.7031C95.9396 24.4219 96.4135 28.1198 96.9656 31.7969C97.5281 35.4635 98.1844 39.1562 98.9344 42.875L95.0594 43.125ZM93.2313 24.5625C93.0229 26.4792 92.825 28.3906 92.6375 30.2969C92.45 32.2031 92.2781 34.125 92.1219 36.0625C92.3406 36.0833 92.5646 36.0938 92.7938 36.0938C93.0229 36.0938 93.2573 36.0938 93.4969 36.0938H94.5125C94.3354 34.1562 94.1375 32.2344 93.9188 30.3281C93.7 28.4219 93.4708 26.5 93.2313 24.5625ZM111.347 20.5938C110.514 23.2396 109.732 25.9115 109.003 28.6094C108.284 31.2969 107.602 33.8958 106.956 36.4062V37.375C106.956 37.8958 106.961 38.3906 106.972 38.8594C106.993 39.3177 107.014 39.776 107.034 40.2344C107.055 40.6823 107.081 41.1458 107.112 41.625C107.154 42.0938 107.201 42.5938 107.253 43.125H103.503C103.586 42.4792 103.659 41.8802 103.722 41.3281C103.784 40.7656 103.831 40.2135 103.862 39.6719C103.904 39.1302 103.935 38.5729 103.956 38C103.977 37.4271 103.987 36.8021 103.987 36.125C103.696 34.9271 103.389 33.6823 103.066 32.3906C102.753 31.099 102.43 29.8021 102.097 28.5C101.764 27.1979 101.43 25.9062 101.097 24.625C100.764 23.3333 100.435 22.0885 100.112 20.8906L104.019 20.5625C104.06 21.4167 104.128 22.3229 104.222 23.2812C104.326 24.2292 104.446 25.1979 104.581 26.1875C104.717 27.1771 104.868 28.1771 105.034 29.1875C105.201 30.1979 105.373 31.1875 105.55 32.1562C105.748 31.1667 105.941 30.1615 106.128 29.1406C106.326 28.1094 106.508 27.0938 106.675 26.0938C106.842 25.0938 106.993 24.1198 107.128 23.1719C107.274 22.224 107.399 21.3333 107.503 20.5L111.347 20.5938ZM126.484 43.125C126.432 42.4062 126.38 41.6823 126.328 40.9531C126.286 40.224 126.234 39.4896 126.172 38.75C125.714 38.7188 125.271 38.6875 124.844 38.6562C124.417 38.625 123.984 38.6094 123.547 38.6094H123.344C123.292 39.3594 123.245 40.099 123.203 40.8281C123.161 41.5573 123.125 42.2812 123.094 43L119.188 42.9375C119.833 39.2188 120.417 35.5104 120.938 31.8125C121.458 28.1146 121.901 24.3854 122.266 20.625L126.969 20.7031C127.365 24.4219 127.839 28.1198 128.391 31.7969C128.953 35.4635 129.609 39.1562 130.359 42.875L126.484 43.125ZM124.656 24.5625C124.448 26.4792 124.25 28.3906 124.062 30.2969C123.875 32.2031 123.703 34.125 123.547 36.0625C123.766 36.0833 123.99 36.0938 124.219 36.0938C124.448 36.0938 124.682 36.0938 124.922 36.0938H125.938C125.76 34.1562 125.562 32.2344 125.344 30.3281C125.125 28.4219 124.896 26.5 124.656 24.5625ZM141.709 31.7969C141.657 32.1719 141.6 32.599 141.537 33.0781C141.485 33.5573 141.439 34.0729 141.397 34.625C141.355 35.1667 141.319 35.7396 141.287 36.3438C141.267 36.9375 141.256 37.5365 141.256 38.1406C141.256 38.276 141.261 38.474 141.272 38.7344C141.293 38.9844 141.314 39.2656 141.334 39.5781C141.355 39.8802 141.376 40.1979 141.397 40.5312C141.428 40.8542 141.454 41.1615 141.475 41.4531C141.506 41.7344 141.532 41.9792 141.553 42.1875C141.574 42.3958 141.595 42.5365 141.616 42.6094C141.209 42.7969 140.808 42.9375 140.412 43.0312C140.017 43.1354 139.662 43.2135 139.35 43.2656C138.985 43.3177 138.631 43.349 138.287 43.3594C137.912 43.3594 137.506 43.2917 137.069 43.1562C136.642 43.0208 136.209 42.7917 135.772 42.4688C135.334 42.1354 134.912 41.6875 134.506 41.125C134.1 40.5521 133.741 39.8385 133.428 38.9844C133.116 38.1198 132.866 37.0885 132.678 35.8906C132.491 34.6927 132.397 33.2969 132.397 31.7031C132.397 30.1094 132.506 28.7188 132.725 27.5312C132.954 26.3438 133.246 25.3281 133.6 24.4844C133.965 23.6302 134.371 22.9323 134.819 22.3906C135.277 21.8385 135.741 21.4062 136.209 21.0938C136.678 20.7708 137.131 20.5521 137.569 20.4375C138.017 20.3125 138.402 20.25 138.725 20.25C139.027 20.2604 139.324 20.2917 139.616 20.3438C139.866 20.3958 140.126 20.474 140.397 20.5781C140.678 20.6823 140.923 20.8281 141.131 21.0156L140.819 24.1562C140.527 24.0104 140.251 23.9062 139.991 23.8438C139.741 23.7708 139.501 23.7344 139.272 23.7344C138.834 23.7344 138.444 23.8542 138.1 24.0938C137.767 24.3229 137.475 24.6302 137.225 25.0156C136.985 25.401 136.777 25.8385 136.6 26.3281C136.433 26.8177 136.298 27.3177 136.194 27.8281C135.933 29.026 135.787 30.3906 135.756 31.9219C135.787 33.2448 135.907 34.4583 136.116 35.5625C136.209 36.0312 136.324 36.5 136.459 36.9688C136.605 37.4375 136.777 37.875 136.975 38.2812C137.183 38.6771 137.423 39.0208 137.694 39.3125C137.975 39.6042 138.298 39.8073 138.662 39.9219C138.642 38.5677 138.574 37.224 138.459 35.8906C138.355 34.5573 138.199 33.2135 137.991 31.8594L141.709 31.7969ZM151.278 43.125C151.226 42.4062 151.174 41.6823 151.122 40.9531C151.08 40.224 151.028 39.4896 150.966 38.75C150.507 38.7188 150.065 38.6875 149.637 38.6562C149.21 38.625 148.778 38.6094 148.341 38.6094H148.137C148.085 39.3594 148.039 40.099 147.997 40.8281C147.955 41.5573 147.919 42.2812 147.887 43L143.981 42.9375C144.627 39.2188 145.21 35.5104 145.731 31.8125C146.252 28.1146 146.695 24.3854 147.059 20.625L151.762 20.7031C152.158 24.4219 152.632 28.1198 153.184 31.7969C153.747 35.4635 154.403 39.1562 155.153 42.875L151.278 43.125ZM149.45 24.5625C149.242 26.4792 149.044 28.3906 148.856 30.2969C148.669 32.2031 148.497 34.125 148.341 36.0625C148.559 36.0833 148.783 36.0938 149.012 36.0938C149.242 36.0938 149.476 36.0938 149.716 36.0938H150.731C150.554 34.1562 150.356 32.2344 150.137 30.3281C149.919 28.4219 149.69 26.5 149.45 24.5625ZM163.972 42.7812C163.555 42.7604 163.139 42.7448 162.722 42.7344C162.305 42.724 161.889 42.7188 161.472 42.7188C160.784 42.7188 160.097 42.7344 159.409 42.7656C158.722 42.7865 158.034 42.8229 157.347 42.875L157.378 39.5156C157.618 39.5469 157.857 39.5729 158.097 39.5938C158.336 39.6042 158.576 39.6198 158.816 39.6406C158.878 38.026 158.935 36.4219 158.988 34.8281C159.05 33.224 159.081 31.6198 159.081 30.0156C159.081 28.9427 159.066 27.8854 159.034 26.8438C159.003 25.7917 158.972 24.7344 158.941 23.6719C158.67 23.6719 158.394 23.6771 158.113 23.6875C157.831 23.6979 157.545 23.7135 157.253 23.7344L157.284 20.4688C158.086 20.5208 158.889 20.5625 159.691 20.5938C160.493 20.6146 161.3 20.625 162.113 20.625C162.404 20.625 162.696 20.625 162.988 20.625C163.279 20.625 163.576 20.6146 163.878 20.5938L163.784 23.7031C163.545 23.7031 163.305 23.6979 163.066 23.6875C162.836 23.6771 162.602 23.6719 162.363 23.6719C162.217 25.5469 162.113 27.4115 162.05 29.2656C161.988 31.1094 161.956 32.9688 161.956 34.8438C161.956 36.4792 161.988 38.1094 162.05 39.7344C162.383 39.7344 162.722 39.7292 163.066 39.7188C163.42 39.7083 163.774 39.6927 164.128 39.6719L163.972 42.7812ZM178.478 20.4688C178.343 22.5625 178.239 24.6406 178.166 26.7031C178.093 28.7552 178.056 30.8177 178.056 32.8906C178.056 34.5052 178.077 36.099 178.119 37.6719C178.171 39.2448 178.254 40.8281 178.369 42.4219L175.213 42.3281C174.796 40.974 174.384 39.6302 173.978 38.2969C173.582 36.9531 173.186 35.6198 172.791 34.2969C172.395 32.974 171.989 31.6562 171.572 30.3438C171.166 29.0312 170.744 27.724 170.306 26.4219C170.338 29.1406 170.384 31.8542 170.447 34.5625C170.52 37.2604 170.645 39.9531 170.822 42.6406L167.213 42.6094C167.338 39.2865 167.4 35.9479 167.4 32.5938C167.4 30.5312 167.379 28.4896 167.338 26.4688C167.296 24.4479 167.233 22.4167 167.15 20.375L171.525 20.4688C172.056 22.7604 172.624 25.0885 173.228 27.4531C173.832 29.8177 174.473 32.151 175.15 34.4531C175.077 32.099 174.968 29.7448 174.822 27.3906C174.686 25.026 174.535 22.7083 174.369 20.4375L178.478 20.4688ZM185.797 20.3438C185.505 23.2292 185.276 26.1406 185.109 29.0781C184.943 32.0156 184.844 34.9062 184.812 37.75L182.734 37.8125C182.661 34.9479 182.562 32.0417 182.438 29.0938C182.323 26.1458 182.188 23.2396 182.031 20.375L185.797 20.3438ZM185.516 41.6875C185.516 41.9375 185.464 42.1719 185.359 42.3906C185.266 42.6094 185.135 42.8021 184.969 42.9688C184.812 43.125 184.62 43.25 184.391 43.3438C184.172 43.4375 183.938 43.4844 183.688 43.4844C183.438 43.4844 183.203 43.4375 182.984 43.3438C182.776 43.25 182.589 43.125 182.422 42.9688C182.255 42.8021 182.125 42.6094 182.031 42.3906C181.938 42.1719 181.891 41.9375 181.891 41.6875C181.891 41.4375 181.938 41.2083 182.031 41C182.125 40.7812 182.255 40.5885 182.422 40.4219C182.589 40.2552 182.776 40.125 182.984 40.0312C183.203 39.9375 183.438 39.8906 183.688 39.8906C183.938 39.8906 184.172 39.9375 184.391 40.0312C184.62 40.125 184.812 40.2552 184.969 40.4219C185.135 40.5885 185.266 40.7812 185.359 41C185.464 41.2083 185.516 41.4375 185.516 41.6875Z" fill="white"/>
</g>
<defs>
<filter id="filter0_ii_32_389" x="0" y="-2" width="251" height="65" filterUnits="userSpaceOnUse" color-interpolation-filters="sRGB">
<feFlood flood-opacity="0" result="BackgroundImageFix"/>
<feBlend mode="normal" in="SourceGraphic" in2="BackgroundImageFix" result="shape"/>
<feColorMatrix in="SourceAlpha" type="matrix" values="0 0 0 0 0 0 0 0 0 0 0 0 0 0 0 0 0 0 127 0" result="hardAlpha"/>
<feMorphology radius="6" operator="erode" in="SourceAlpha" result="effect1_innerShadow_32_389"/>
<feOffset dy="1"/>
<feComposite in2="hardAlpha" operator="arithmetic" k2="-1" k3="1"/>
<feColorMatrix type="matrix" values="0 0 0 0 0.233333 0 0 0 0 0.453882 0 0 0 0 1 0 0 0 1 0"/>
<feBlend mode="normal" in2="shape" result="effect1_innerShadow_32_389"/>
<feColorMatrix in="SourceAlpha" type="matrix" values="0 0 0 0 0 0 0 0 0 0 0 0 0 0 0 0 0 0 127 0" result="hardAlpha"/>
<feMorphology radius="3" operator="erode" in="SourceAlpha" result="effect2_innerShadow_32_389"/>
<feOffset dy="-2"/>
<feComposite in2="hardAlpha" operator="arithmetic" k2="-1" k3="1"/>
<feColorMatrix type="matrix" values="0 0 0 0 0.0784314 0 0 0 0 0.054902 0 0 0 0 0.4 0 0 0 1 0"/>
<feBlend mode="normal" in2="effect1_innerShadow_32_389" result="effect2_innerShadow_32_389"/>
</filter>
</defs>
</svg>
