<svg width="235" height="62" viewBox="0 0 235 62" fill="none" xmlns="http://www.w3.org/2000/svg">
<g filter="url(#filter0_ii_32_195)">
<rect width="235" height="62" rx="31" fill="url(#paint0_linear_32_195)"/>
<path d="M72.4281 47.2812C72.2823 46.625 72.1 45.9792 71.8812 45.3438C71.6625 44.7083 71.4073 44.0781 71.1156 43.4531C70.8656 43.5156 70.6 43.5469 70.3187 43.5469C69.5583 43.5469 68.8448 43.3542 68.1781 42.9688C67.5115 42.5729 66.9281 41.9271 66.4281 41.0312C65.9281 40.1354 65.5323 38.9531 65.2406 37.4844C64.9594 36.0156 64.8187 34.2083 64.8187 32.0625C64.8187 29.9062 64.9594 28.0781 65.2406 26.5781C65.5323 25.0677 65.9281 23.8438 66.4281 22.9062C66.9281 21.9583 67.5115 21.276 68.1781 20.8594C68.8448 20.4323 69.5583 20.2188 70.3187 20.2188C71.0792 20.2188 71.7927 20.4271 72.4594 20.8438C73.126 21.25 73.7042 21.9219 74.1937 22.8594C74.6833 23.7969 75.0687 25.0208 75.35 26.5312C75.6417 28.0312 75.7875 29.875 75.7875 32.0625C75.7875 33.4583 75.7198 34.7135 75.5844 35.8281C75.4594 36.9323 75.2771 37.9115 75.0375 38.7656C74.8083 39.6198 74.5219 40.349 74.1781 40.9531C73.8448 41.5469 73.475 42.0365 73.0687 42.4219C73.4021 42.9844 73.7667 43.526 74.1625 44.0469C74.5687 44.5781 74.9958 45.0938 75.4437 45.5938L72.4281 47.2812ZM72.3031 32.0625C72.3031 30.4271 72.251 29.0469 72.1469 27.9219C72.0427 26.7969 71.8969 25.8854 71.7094 25.1875C71.5323 24.4792 71.324 23.9688 71.0844 23.6562C70.8448 23.3438 70.5896 23.1875 70.3187 23.1875C70.0375 23.1875 69.7719 23.349 69.5219 23.6719C69.2823 23.9844 69.0687 24.4948 68.8812 25.2031C68.7042 25.901 68.5635 26.8177 68.4594 27.9531C68.3552 29.0781 68.3031 30.4479 68.3031 32.0625C68.3031 33.6667 68.3552 35.0156 68.4594 36.1094C68.5635 37.1927 68.7042 38.0677 68.8812 38.7344C69.0687 39.3906 69.2823 39.8594 69.5219 40.1406C69.7719 40.4219 70.0375 40.5625 70.3187 40.5625C70.5896 40.5625 70.8448 40.4167 71.0844 40.125C71.324 39.8229 71.5323 39.3385 71.7094 38.6719C71.8969 37.9948 72.0427 37.1146 72.1469 36.0312C72.251 34.9479 72.3031 33.625 72.3031 32.0625ZM87.9812 20.375C88.2208 22.5 88.3875 24.651 88.4812 26.8281C88.575 28.9948 88.6219 31.2604 88.6219 33.625C88.6219 34.4271 88.5854 35.224 88.5125 36.0156C88.45 36.7969 88.3354 37.5469 88.1687 38.2656C88.0125 38.974 87.799 39.6354 87.5281 40.25C87.2677 40.8542 86.9396 41.3802 86.5437 41.8281C86.1479 42.2656 85.6792 42.6146 85.1375 42.875C84.5958 43.125 83.976 43.25 83.2781 43.25C82.6531 43.25 82.1062 43.1354 81.6375 42.9062C81.1687 42.6667 80.7677 42.3438 80.4344 41.9375C80.101 41.5208 79.8198 41.0365 79.5906 40.4844C79.3719 39.9219 79.2 39.3177 79.075 38.6719C78.95 38.0156 78.8615 37.3333 78.8094 36.625C78.7573 35.9167 78.7312 35.2031 78.7312 34.4844C78.7312 32.3177 78.8198 30.125 78.9969 27.9062C79.174 25.6771 79.3823 23.3698 79.6219 20.9844L82.8875 21.0469C82.7 23.2865 82.5229 25.5469 82.3562 27.8281C82.2 30.1094 82.1219 32.4583 82.1219 34.875C82.1219 35.5729 82.1427 36.2344 82.1844 36.8594C82.226 37.4844 82.299 38.0365 82.4031 38.5156C82.5073 38.9844 82.6375 39.3594 82.7937 39.6406C82.9604 39.9219 83.1635 40.0625 83.4031 40.0625C83.6844 40.0625 83.9396 39.8438 84.1687 39.4062C84.4083 38.9583 84.6062 38.375 84.7625 37.6562C84.9292 36.9271 85.0594 36.099 85.1531 35.1719C85.2469 34.2448 85.2937 33.3021 85.2937 32.3438C85.2937 31.4271 85.2833 30.5052 85.2625 29.5781C85.2521 28.651 85.2312 27.7135 85.2 26.7656C85.1687 25.8073 85.1271 24.8333 85.075 23.8438C85.0229 22.8438 84.9552 21.8073 84.8719 20.7344L87.9812 20.375ZM98.4562 42.7812C98.0396 42.7604 97.6229 42.7448 97.2062 42.7344C96.7896 42.724 96.3729 42.7188 95.9562 42.7188C95.2687 42.7188 94.5812 42.7344 93.8937 42.7656C93.2062 42.7865 92.5187 42.8229 91.8312 42.875L91.8625 39.5156C92.1021 39.5469 92.3417 39.5729 92.5812 39.5938C92.8208 39.6042 93.0604 39.6198 93.3 39.6406C93.3625 38.026 93.4198 36.4219 93.4719 34.8281C93.5344 33.224 93.5656 31.6198 93.5656 30.0156C93.5656 28.9427 93.55 27.8854 93.5187 26.8438C93.4875 25.7917 93.4562 24.7344 93.425 23.6719C93.1542 23.6719 92.8781 23.6771 92.5969 23.6875C92.3156 23.6979 92.0292 23.7135 91.7375 23.7344L91.7687 20.4688C92.5708 20.5208 93.3729 20.5625 94.175 20.5938C94.9771 20.6146 95.7844 20.625 96.5969 20.625C96.8885 20.625 97.1802 20.625 97.4719 20.625C97.7635 20.625 98.0604 20.6146 98.3625 20.5938L98.2687 23.7031C98.0292 23.7031 97.7896 23.6979 97.55 23.6875C97.3208 23.6771 97.0865 23.6719 96.8469 23.6719C96.701 25.5469 96.5969 27.4115 96.5344 29.2656C96.4719 31.1094 96.4406 32.9688 96.4406 34.8438C96.4406 36.4792 96.4719 38.1094 96.5344 39.7344C96.8677 39.7344 97.2062 39.7292 97.55 39.7188C97.9042 39.7083 98.2583 39.6927 98.6125 39.6719L98.4562 42.7812ZM109.431 23.8281C109.098 23.8073 108.712 23.7917 108.275 23.7812C107.848 23.7708 107.39 23.7656 106.9 23.7656C106.827 24.7344 106.765 25.7396 106.712 26.7812C106.671 27.8125 106.634 28.8646 106.603 29.9375C106.572 31 106.551 32.0729 106.541 33.1562C106.53 34.2292 106.525 35.2917 106.525 36.3438C106.525 37.5417 106.53 38.7031 106.541 39.8281C106.561 40.9427 106.598 42.0208 106.65 43.0625H103.322C103.416 41.2917 103.489 39.4062 103.541 37.4062C103.593 35.4062 103.619 33.3906 103.619 31.3594C103.619 30.0365 103.603 28.7448 103.572 27.4844C103.541 26.224 103.509 24.9948 103.478 23.7969C102.978 23.7969 102.504 23.8021 102.056 23.8125C101.608 23.8229 101.207 23.8385 100.853 23.8594L100.884 20.5938C101.259 20.625 101.681 20.651 102.15 20.6719C102.619 20.6823 103.108 20.6927 103.619 20.7031C104.14 20.7135 104.671 20.724 105.212 20.7344C105.754 20.7344 106.285 20.7344 106.806 20.7344C107.327 20.7344 107.817 20.7344 108.275 20.7344C108.744 20.7344 109.16 20.724 109.525 20.7031L109.431 23.8281ZM127.912 31.7969C127.86 32.1719 127.803 32.599 127.741 33.0781C127.689 33.5573 127.642 34.0729 127.6 34.625C127.558 35.1667 127.522 35.7396 127.491 36.3438C127.47 36.9375 127.459 37.5365 127.459 38.1406C127.459 38.276 127.465 38.474 127.475 38.7344C127.496 38.9844 127.517 39.2656 127.537 39.5781C127.558 39.8802 127.579 40.1979 127.6 40.5312C127.631 40.8542 127.657 41.1615 127.678 41.4531C127.709 41.7344 127.735 41.9792 127.756 42.1875C127.777 42.3958 127.798 42.5365 127.819 42.6094C127.412 42.7969 127.011 42.9375 126.616 43.0312C126.22 43.1354 125.866 43.2135 125.553 43.2656C125.189 43.3177 124.834 43.349 124.491 43.3594C124.116 43.3594 123.709 43.2917 123.272 43.1562C122.845 43.0208 122.412 42.7917 121.975 42.4688C121.537 42.1354 121.116 41.6875 120.709 41.125C120.303 40.5521 119.944 39.8385 119.631 38.9844C119.319 38.1198 119.069 37.0885 118.881 35.8906C118.694 34.6927 118.6 33.2969 118.6 31.7031C118.6 30.1094 118.709 28.7188 118.928 27.5312C119.157 26.3438 119.449 25.3281 119.803 24.4844C120.168 23.6302 120.574 22.9323 121.022 22.3906C121.48 21.8385 121.944 21.4062 122.412 21.0938C122.881 20.7708 123.334 20.5521 123.772 20.4375C124.22 20.3125 124.605 20.25 124.928 20.25C125.23 20.2604 125.527 20.2917 125.819 20.3438C126.069 20.3958 126.329 20.474 126.6 20.5781C126.881 20.6823 127.126 20.8281 127.334 21.0156L127.022 24.1562C126.73 24.0104 126.454 23.9062 126.194 23.8438C125.944 23.7708 125.704 23.7344 125.475 23.7344C125.037 23.7344 124.647 23.8542 124.303 24.0938C123.97 24.3229 123.678 24.6302 123.428 25.0156C123.189 25.401 122.98 25.8385 122.803 26.3281C122.636 26.8177 122.501 27.3177 122.397 27.8281C122.136 29.026 121.991 30.3906 121.959 31.9219C121.991 33.2448 122.11 34.4583 122.319 35.5625C122.412 36.0312 122.527 36.5 122.662 36.9688C122.808 37.4375 122.98 37.875 123.178 38.2812C123.386 38.6771 123.626 39.0208 123.897 39.3125C124.178 39.6042 124.501 39.8073 124.866 39.9219C124.845 38.5677 124.777 37.224 124.662 35.8906C124.558 34.5573 124.402 33.2135 124.194 31.8594L127.912 31.7969ZM137.481 43.125C137.429 42.4062 137.377 41.6823 137.325 40.9531C137.283 40.224 137.231 39.4896 137.169 38.75C136.71 38.7188 136.268 38.6875 135.841 38.6562C135.414 38.625 134.981 38.6094 134.544 38.6094H134.341C134.289 39.3594 134.242 40.099 134.2 40.8281C134.158 41.5573 134.122 42.2812 134.091 43L130.184 42.9375C130.83 39.2188 131.414 35.5104 131.934 31.8125C132.455 28.1146 132.898 24.3854 133.262 20.625L137.966 20.7031C138.361 24.4219 138.835 28.1198 139.387 31.7969C139.95 35.4635 140.606 39.1562 141.356 42.875L137.481 43.125ZM135.653 24.5625C135.445 26.4792 135.247 28.3906 135.059 30.2969C134.872 32.2031 134.7 34.125 134.544 36.0625C134.762 36.0833 134.986 36.0938 135.216 36.0938C135.445 36.0938 135.679 36.0938 135.919 36.0938H136.934C136.757 34.1562 136.559 32.2344 136.341 30.3281C136.122 28.4219 135.893 26.5 135.653 24.5625ZM155.034 43.0312C155.066 41.4375 155.102 39.8177 155.144 38.1719C155.154 37.474 155.165 36.7344 155.175 35.9531C155.196 35.1719 155.211 34.3802 155.222 33.5781C155.232 32.776 155.237 31.974 155.237 31.1719C155.248 30.3698 155.253 29.599 155.253 28.8594C155.253 28.3698 155.253 27.9062 155.253 27.4688C155.253 27.0208 155.243 26.599 155.222 26.2031C155.097 26.974 154.935 27.9688 154.737 29.1875C154.55 30.3958 154.352 31.7344 154.144 33.2031C153.935 34.6615 153.727 36.2083 153.519 37.8438C153.321 39.4792 153.144 41.1042 152.987 42.7188L150.019 42.6406C149.769 41.0156 149.524 39.4167 149.284 37.8438C149.055 36.2708 148.831 34.776 148.612 33.3594C148.404 31.9427 148.211 30.6302 148.034 29.4219C147.857 28.2135 147.706 27.1615 147.581 26.2656V31.7031C147.581 32.8281 147.586 33.9635 147.597 35.1094C147.607 36.2448 147.618 37.3177 147.628 38.3281C147.649 39.3385 147.675 40.25 147.706 41.0625C147.737 41.8646 147.779 42.4896 147.831 42.9375L143.581 43.1875C143.737 42.3021 143.862 41.3073 143.956 40.2031C144.06 39.099 144.139 37.9427 144.191 36.7344C144.253 35.526 144.295 34.2969 144.316 33.0469C144.336 31.7969 144.347 30.5833 144.347 29.4062C144.347 28.1979 144.336 27.0677 144.316 26.0156C144.305 24.9635 144.29 24.0417 144.269 23.25C144.237 22.3229 144.211 21.474 144.191 20.7031C144.524 20.7552 144.873 20.8021 145.237 20.8438C145.602 20.875 145.961 20.901 146.316 20.9219C146.67 20.9427 147.014 20.9583 147.347 20.9688C147.68 20.9792 147.982 20.9844 148.253 20.9844C148.43 20.9844 148.592 20.9844 148.737 20.9844C148.894 20.9844 149.029 20.9792 149.144 20.9688C149.269 20.9688 149.378 20.9635 149.472 20.9531C149.972 24.4115 150.394 27.3281 150.737 29.7031C151.081 32.0781 151.352 33.8854 151.55 35.125C151.665 34.3333 151.774 33.5208 151.878 32.6875C151.993 31.8438 152.097 31.0104 152.191 30.1875C152.284 29.3646 152.368 28.5625 152.441 27.7812C152.524 26.9896 152.597 26.2448 152.659 25.5469C152.805 23.901 152.935 22.3073 153.05 20.7656C153.279 20.7865 153.529 20.8073 153.8 20.8281C154.04 20.849 154.321 20.8646 154.644 20.875C154.977 20.8854 155.342 20.8906 155.737 20.8906C156.133 20.8906 156.56 20.8854 157.019 20.875C157.477 20.8542 157.956 20.8177 158.456 20.7656C158.331 24.6615 158.269 28.0312 158.269 30.875C158.269 32.9688 158.29 34.7708 158.331 36.2812C158.383 37.7917 158.435 39.0417 158.487 40.0312C158.55 41.1979 158.628 42.1667 158.722 42.9375L155.034 43.0312ZM168.619 34.6406C168.296 34.6198 167.968 34.6042 167.634 34.5938C167.301 34.5833 166.968 34.5781 166.634 34.5781C166.447 34.5781 166.249 34.5833 166.041 34.5938C165.843 34.6042 165.645 34.6094 165.447 34.6094L165.384 40.1875C166.239 40.1667 167.067 40.125 167.869 40.0625C168.681 40 169.541 39.901 170.447 39.7656V43.0312C169.864 43.0104 169.296 42.9948 168.744 42.9844C168.202 42.974 167.66 42.9688 167.119 42.9688C166.306 42.9688 165.504 42.9792 164.713 43C163.921 43.0312 163.103 43.0729 162.259 43.125C162.353 41.1875 162.426 39.2708 162.478 37.375C162.541 35.4688 162.572 33.5469 162.572 31.6094C162.572 29.7552 162.546 27.9167 162.494 26.0938C162.452 24.2604 162.374 22.4167 162.259 20.5625C163.489 20.6562 164.66 20.7031 165.775 20.7031C166.483 20.7031 167.186 20.6875 167.884 20.6562C168.593 20.6146 169.348 20.5625 170.15 20.5V24.0938C169.504 23.9792 168.864 23.8906 168.228 23.8281C167.603 23.7656 166.978 23.7344 166.353 23.7344H165.744C165.64 25.0365 165.567 26.3333 165.525 27.625C165.494 28.9167 165.468 30.2135 165.447 31.5156C165.718 31.5365 165.989 31.5469 166.259 31.5469C166.541 31.5469 166.827 31.5469 167.119 31.5469C167.358 31.5469 167.603 31.5469 167.853 31.5469C168.103 31.5469 168.358 31.5365 168.619 31.5156V34.6406Z" fill="white"/>
</g>
<defs>
<filter id="filter0_ii_32_195" x="0" y="-2" width="235" height="65" filterUnits="userSpaceOnUse" color-interpolation-filters="sRGB">
<feFlood flood-opacity="0" result="BackgroundImageFix"/>
<feBlend mode="normal" in="SourceGraphic" in2="BackgroundImageFix" result="shape"/>
<feColorMatrix in="SourceAlpha" type="matrix" values="0 0 0 0 0 0 0 0 0 0 0 0 0 0 0 0 0 0 127 0" result="hardAlpha"/>
<feMorphology radius="6" operator="erode" in="SourceAlpha" result="effect1_innerShadow_32_195"/>
<feOffset dy="1"/>
<feComposite in2="hardAlpha" operator="arithmetic" k2="-1" k3="1"/>
<feColorMatrix type="matrix" values="0 0 0 0 0.774693 0 0 0 0 0.258773 0 0 0 0 0.985498 0 0 0 1 0"/>
<feBlend mode="normal" in2="shape" result="effect1_innerShadow_32_195"/>
<feColorMatrix in="SourceAlpha" type="matrix" values="0 0 0 0 0 0 0 0 0 0 0 0 0 0 0 0 0 0 127 0" result="hardAlpha"/>
<feMorphology radius="3" operator="erode" in="SourceAlpha" result="effect2_innerShadow_32_195"/>
<feOffset dy="-2"/>
<feComposite in2="hardAlpha" operator="arithmetic" k2="-1" k3="1"/>
<feColorMatrix type="matrix" values="0 0 0 0 0.0784314 0 0 0 0 0.054902 0 0 0 0 0.4 0 0 0 1 0"/>
<feBlend mode="normal" in2="effect1_innerShadow_32_195" result="effect2_innerShadow_32_195"/>
</filter>
<linearGradient id="paint0_linear_32_195" x1="117.5" y1="10.1791" x2="117.5" y2="62" gradientUnits="userSpaceOnUse">
<stop stop-color="#FE71FE"/>
<stop offset="1" stop-color="#7199FF"/>
</linearGradient>
</defs>
</svg>
